<?xml version="1.0" encoding="utf-8" standalone="no"?>
<!DOCTYPE svg PUBLIC "-//W3C//DTD SVG 1.1//EN" 
"http://www.w3.org/Graphics/SVG/1.1/DTD/svg11.dtd">
<svg width="516px" height="470px" viewBox="0 0 516 470"
xmlns="http://www.w3.org/2000/svg" version="1.1">
<rect x="0" y="0" width="516" height="470" fill="none" stroke="rgb(192,192,192)" stroke-width="1"/>
<text x="346" y="466" font-family="serif" font-size="12" fill="rgb(0,0,0)" textLength="29.00">Rose</text>
<text x="352" y="461" font-family="serif" font-size="12" fill="rgb(0,0,0)" textLength="36.00">Navel</text>
<text x="340" y="456" font-family="serif" font-size="12" fill="rgb(0,0,0)" textLength="45.00">DavisN</text>
<text x="342" y="451" font-family="serif" font-size="12" fill="rgb(0,0,0)" textLength="48.00">1.04.01</text>
<text x="352" y="446" font-family="serif" font-size="12" fill="rgb(0,0,0)" textLength="48.00">1.02.06</text>
<text x="352" y="441" font-family="serif" font-size="12" fill="rgb(0,0,0)" textLength="48.00">1.02.03</text>
<text x="351" y="436" font-family="serif" font-size="12" fill="rgb(0,0,0)" textLength="48.00">1.02.20</text>
<text x="347" y="431" font-family="serif" font-size="12" fill="rgb(0,0,0)" textLength="48.00">1.02.04</text>
<text x="345" y="426" font-family="serif" font-size="12" fill="rgb(0,0,0)" textLength="48.00">1.02.02</text>
<text x="347" y="421" font-family="serif" font-size="12" fill="rgb(0,0,0)" textLength="48.00">1.02.01</text>
<text x="358" y="416" font-family="serif" font-size="12" fill="rgb(0,0,0)" textLength="42.00">Mex03</text>
<text x="364" y="412" font-family="serif" font-size="12" fill="rgb(0,0,0)" textLength="47.00">PepS25</text>
<text x="350" y="407" font-family="serif" font-size="12" fill="rgb(0,0,0)" textLength="32.00">2004</text>
<text x="382" y="402" font-family="serif" font-size="12" fill="rgb(0,0,0)" textLength="47.00">KernB2</text>
<text x="385" y="397" font-family="serif" font-size="12" fill="rgb(0,0,0)" textLength="48.00">1.05.22</text>
<text x="385" y="392" font-family="serif" font-size="12" fill="rgb(0,0,0)" textLength="48.00">1.05.16</text>
<text x="456" y="387" font-family="serif" font-size="12" fill="rgb(0,0,0)" textLength="36.00">GLO1</text>
<text x="439" y="382" font-family="serif" font-size="12" fill="rgb(0,0,0)" textLength="48.00">1.05.04</text>
<text x="442" y="377" font-family="serif" font-size="12" fill="rgb(0,0,0)" textLength="48.00">1.04.25</text>
<text x="440" y="372" font-family="serif" font-size="12" fill="rgb(0,0,0)" textLength="48.00">1.04.21</text>
<text x="463" y="367" font-family="serif" font-size="12" fill="rgb(0,0,0)" textLength="44.00">Peachy</text>
<text x="439" y="362" font-family="serif" font-size="12" fill="rgb(0,0,0)" textLength="48.00">1.02.16</text>
<text x="437" y="357" font-family="serif" font-size="12" fill="rgb(0,0,0)" textLength="48.00">1.04.20</text>
<text x="438" y="352" font-family="serif" font-size="12" fill="rgb(0,0,0)" textLength="48.00">1.03.20</text>
<text x="431" y="347" font-family="serif" font-size="12" fill="rgb(0,0,0)" textLength="48.00">1.05.14</text>
<text x="451" y="342" font-family="serif" font-size="12" fill="rgb(0,0,0)" textLength="48.00">1.04.02</text>
<text x="416" y="337" font-family="serif" font-size="12" fill="rgb(0,0,0)" textLength="48.00">1.04.05</text>
<text x="434" y="332" font-family="serif" font-size="12" fill="rgb(0,0,0)" textLength="48.00">1.04.03</text>
<text x="420" y="327" font-family="serif" font-size="12" fill="rgb(0,0,0)" textLength="48.00">1.02.15</text>
<text x="418" y="322" font-family="serif" font-size="12" fill="rgb(0,0,0)" textLength="48.00">1.04.04</text>
<text x="406" y="317" font-family="serif" font-size="12" fill="rgb(0,0,0)" textLength="48.00">1.05.17</text>
<text x="397" y="312" font-family="serif" font-size="12" fill="rgb(0,0,0)" textLength="48.00">1.03.19</text>
<text x="398" y="307" font-family="serif" font-size="12" fill="rgb(0,0,0)" textLength="48.00">1.02.18</text>
<text x="396" y="303" font-family="serif" font-size="12" fill="rgb(0,0,0)" textLength="48.00">1.02.17</text>
<text x="387" y="298" font-family="serif" font-size="12" fill="rgb(0,0,0)" textLength="48.00">1.04.12</text>
<text x="356" y="293" font-family="serif" font-size="12" fill="rgb(0,0,0)" textLength="48.00">1.04.15</text>
<text x="383" y="288" font-family="serif" font-size="12" fill="rgb(0,0,0)" textLength="24.00">300</text>
<text x="352" y="283" font-family="serif" font-size="12" fill="rgb(0,0,0)" textLength="48.00">1.01.15</text>
<text x="375" y="278" font-family="serif" font-size="12" fill="rgb(0,0,0)" textLength="30.00">Rasp</text>
<text x="345" y="273" font-family="serif" font-size="12" fill="rgb(0,0,0)" textLength="48.00">1.03.18</text>
<text x="341" y="268" font-family="serif" font-size="12" fill="rgb(0,0,0)" textLength="48.00">1.05.24</text>
<text x="341" y="263" font-family="serif" font-size="12" fill="rgb(0,0,0)" textLength="48.00">1.05.11</text>
<text x="350" y="258" font-family="serif" font-size="12" fill="rgb(0,0,0)" textLength="56.00">FSD_S21</text>
<text x="343" y="253" font-family="serif" font-size="12" fill="rgb(0,0,0)" textLength="48.00">1.01.06</text>
<text x="339" y="248" font-family="serif" font-size="12" fill="rgb(0,0,0)" textLength="48.00">1.01.04</text>
<text x="340" y="243" font-family="serif" font-size="12" fill="rgb(0,0,0)" textLength="48.00">1.01.03</text>
<text x="338" y="238" font-family="serif" font-size="12" fill="rgb(0,0,0)" textLength="48.00">1.01.02</text>
<text x="337" y="233" font-family="serif" font-size="12" fill="rgb(0,0,0)" textLength="48.00">1.01.01</text>
<text x="346" y="228" font-family="serif" font-size="12" fill="rgb(0,0,0)" textLength="48.00">1.04.19</text>
<text x="344" y="223" font-family="serif" font-size="12" fill="rgb(0,0,0)" textLength="48.00">1.04.17</text>
<text x="352" y="218" font-family="serif" font-size="12" fill="rgb(0,0,0)" textLength="48.00">1.03.23</text>
<text x="352" y="213" font-family="serif" font-size="12" fill="rgb(0,0,0)" textLength="48.00">1.03.16</text>
<text x="374" y="208" font-family="serif" font-size="12" fill="rgb(0,0,0)" textLength="48.00">1.03.22</text>
<text x="358" y="203" font-family="serif" font-size="12" fill="rgb(0,0,0)" textLength="48.00">1.03.02</text>
<text x="354" y="198" font-family="serif" font-size="12" fill="rgb(0,0,0)" textLength="48.00">1.02.19</text>
<text x="356" y="194" font-family="serif" font-size="12" fill="rgb(0,0,0)" textLength="48.00">1.03.12</text>
<text x="341" y="189" font-family="serif" font-size="12" fill="rgb(0,0,0)" textLength="46.00">NobleR</text>
<text x="349" y="184" font-family="serif" font-size="12" fill="rgb(0,0,0)" textLength="46.00">SS_S27</text>
<text x="424" y="179" font-family="serif" font-size="12" fill="rgb(0,0,0)" textLength="34.00">Molly</text>
<text x="386" y="174" font-family="serif" font-size="12" fill="rgb(0,0,0)" textLength="61.00">Geranium</text>
<text x="394" y="169" font-family="serif" font-size="12" fill="rgb(0,0,0)" textLength="47.00">KernB1</text>
<text x="386" y="164" font-family="serif" font-size="12" fill="rgb(0,0,0)" textLength="48.00">1.01.12</text>
<text x="361" y="159" font-family="serif" font-size="12" fill="rgb(0,0,0)" textLength="58.00">Fresa525</text>
<text x="402" y="154" font-family="serif" font-size="12" fill="rgb(0,0,0)" textLength="33.00">BMM</text>
<text x="403" y="149" font-family="serif" font-size="12" fill="rgb(0,0,0)" textLength="36.00">KGB2</text>
<text x="404" y="144" font-family="serif" font-size="12" fill="rgb(0,0,0)" textLength="29.00">Glo2</text>
<text x="315" y="139" font-family="serif" font-size="12" fill="rgb(0,0,0)" textLength="40.00">KatieT</text>
<text x="322" y="134" font-family="serif" font-size="12" fill="rgb(0,0,0)" textLength="36.00">KGB1</text>
<text x="328" y="129" font-family="serif" font-size="12" fill="rgb(0,0,0)" textLength="53.00">Kern_A2</text>
<text x="323" y="124" font-family="serif" font-size="12" fill="rgb(0,0,0)" textLength="16.00">T7</text>
<text x="323" y="119" font-family="serif" font-size="12" fill="rgb(0,0,0)" textLength="16.00">T3</text>
<text x="319" y="114" font-family="serif" font-size="12" fill="rgb(0,0,0)" textLength="58.00">PhiloMen</text>
<text x="335" y="109" font-family="serif" font-size="12" fill="rgb(0,0,0)" textLength="16.00">T4</text>
<text x="362" y="104" font-family="serif" font-size="12" fill="rgb(0,0,0)" textLength="24.00">Fd1</text>
<text x="369" y="99" font-family="serif" font-size="12" fill="rgb(0,0,0)" textLength="47.00">BO5.10</text>
<text x="349" y="94" font-family="serif" font-size="12" fill="rgb(0,0,0)" textLength="24.00">Fd2</text>
<text x="389" y="89" font-family="serif" font-size="12" fill="rgb(0,0,0)" textLength="28.00">UKR</text>
<text x="350" y="85" font-family="serif" font-size="12" fill="rgb(0,0,0)" textLength="41.00">Acacia</text>
<text x="363" y="80" font-family="serif" font-size="12" fill="rgb(0,0,0)" textLength="48.00">1.03.04</text>
<text x="422" y="75" font-family="serif" font-size="12" fill="rgb(0,0,0)" textLength="34.00">BPA1</text>
<text x="388" y="70" font-family="serif" font-size="12" fill="rgb(0,0,0)" textLength="60.00">Apple404</text>
<text x="388" y="65" font-family="serif" font-size="12" fill="rgb(0,0,0)" textLength="33.00">A517</text>
<text x="396" y="60" font-family="serif" font-size="12" fill="rgb(0,0,0)" textLength="48.00">2.04.17</text>
<text x="372" y="55" font-family="serif" font-size="12" fill="rgb(0,0,0)" textLength="57.00">EspFresa</text>
<text x="371" y="50" font-family="serif" font-size="12" fill="rgb(0,0,0)" textLength="50.00">Ausubel</text>
<text x="373" y="45" font-family="serif" font-size="12" fill="rgb(0,0,0)" textLength="46.00">PS_S26</text>
<text x="368" y="40" font-family="serif" font-size="12" fill="rgb(0,0,0)" textLength="58.00">MEAPGG</text>
<text x="387" y="35" font-family="serif" font-size="12" fill="rgb(0,0,0)" textLength="38.00">Grape</text>
<line x1="328" y1="456" x2="350" y2="456" style="stroke:rgb(0,0,0);stroke-width:1;stroke-linecap:round" />
<line x1="328" y1="451" x2="338" y2="451" style="stroke:rgb(0,0,0);stroke-width:1;stroke-linecap:round" />
<line x1="328" y1="456" x2="328" y2="451" style="stroke:rgb(0,0,0);stroke-width:1;stroke-linecap:round" />
<line x1="350" y1="441" x2="350" y2="441" style="stroke:rgb(0,0,0);stroke-width:1;stroke-linecap:round" />
<line x1="350" y1="436" x2="350" y2="436" style="stroke:rgb(0,0,0);stroke-width:1;stroke-linecap:round" />
<line x1="350" y1="441" x2="350" y2="436" style="stroke:rgb(0,0,0);stroke-width:1;stroke-linecap:round" />
<line x1="340" y1="439" x2="350" y2="439" style="stroke:rgb(0,0,0);stroke-width:1;stroke-linecap:round" />
<line x1="340" y1="431" x2="348" y2="431" style="stroke:rgb(0,0,0);stroke-width:1;stroke-linecap:round" />
<line x1="340" y1="439" x2="340" y2="431" style="stroke:rgb(0,0,0);stroke-width:1;stroke-linecap:round" />
<line x1="338" y1="435" x2="340" y2="435" style="stroke:rgb(0,0,0);stroke-width:1;stroke-linecap:round" />
<line x1="338" y1="426" x2="344" y2="426" style="stroke:rgb(0,0,0);stroke-width:1;stroke-linecap:round" />
<line x1="338" y1="435" x2="338" y2="426" style="stroke:rgb(0,0,0);stroke-width:1;stroke-linecap:round" />
<line x1="336" y1="431" x2="338" y2="431" style="stroke:rgb(0,0,0);stroke-width:1;stroke-linecap:round" />
<line x1="336" y1="421" x2="343" y2="421" style="stroke:rgb(0,0,0);stroke-width:1;stroke-linecap:round" />
<line x1="336" y1="431" x2="336" y2="421" style="stroke:rgb(0,0,0);stroke-width:1;stroke-linecap:round" />
<line x1="335" y1="426" x2="336" y2="426" style="stroke:rgb(0,0,0);stroke-width:1;stroke-linecap:round" />
<line x1="335" y1="416" x2="344" y2="416" style="stroke:rgb(0,0,0);stroke-width:1;stroke-linecap:round" />
<line x1="335" y1="426" x2="335" y2="416" style="stroke:rgb(0,0,0);stroke-width:1;stroke-linecap:round" />
<line x1="275" y1="446" x2="340" y2="446" style="stroke:rgb(0,0,0);stroke-width:1;stroke-linecap:round" />
<line x1="275" y1="421" x2="335" y2="421" style="stroke:rgb(0,0,0);stroke-width:1;stroke-linecap:round" />
<line x1="275" y1="446" x2="275" y2="421" style="stroke:rgb(0,0,0);stroke-width:1;stroke-linecap:round" />
<line x1="211" y1="454" x2="328" y2="454" style="stroke:rgb(0,0,0);stroke-width:1;stroke-linecap:round" />
<line x1="211" y1="434" x2="275" y2="434" style="stroke:rgb(0,0,0);stroke-width:1;stroke-linecap:round" />
<line x1="211" y1="454" x2="211" y2="434" style="stroke:rgb(0,0,0);stroke-width:1;stroke-linecap:round" />
<line x1="346" y1="411" x2="356" y2="411" style="stroke:rgb(0,0,0);stroke-width:1;stroke-linecap:round" />
<line x1="346" y1="407" x2="362" y2="407" style="stroke:rgb(0,0,0);stroke-width:1;stroke-linecap:round" />
<line x1="346" y1="411" x2="346" y2="407" style="stroke:rgb(0,0,0);stroke-width:1;stroke-linecap:round" />
<line x1="203" y1="409" x2="346" y2="409" style="stroke:rgb(0,0,0);stroke-width:1;stroke-linecap:round" />
<line x1="203" y1="402" x2="347" y2="402" style="stroke:rgb(0,0,0);stroke-width:1;stroke-linecap:round" />
<line x1="203" y1="409" x2="203" y2="402" style="stroke:rgb(0,0,0);stroke-width:1;stroke-linecap:round" />
<line x1="375" y1="392" x2="383" y2="392" style="stroke:rgb(0,0,0);stroke-width:1;stroke-linecap:round" />
<line x1="375" y1="387" x2="383" y2="387" style="stroke:rgb(0,0,0);stroke-width:1;stroke-linecap:round" />
<line x1="375" y1="392" x2="375" y2="387" style="stroke:rgb(0,0,0);stroke-width:1;stroke-linecap:round" />
<line x1="257" y1="397" x2="379" y2="397" style="stroke:rgb(0,0,0);stroke-width:1;stroke-linecap:round" />
<line x1="257" y1="389" x2="375" y2="389" style="stroke:rgb(0,0,0);stroke-width:1;stroke-linecap:round" />
<line x1="257" y1="397" x2="257" y2="389" style="stroke:rgb(0,0,0);stroke-width:1;stroke-linecap:round" />
<line x1="353" y1="382" x2="454" y2="382" style="stroke:rgb(0,0,0);stroke-width:1;stroke-linecap:round" />
<line x1="353" y1="377" x2="437" y2="377" style="stroke:rgb(0,0,0);stroke-width:1;stroke-linecap:round" />
<line x1="353" y1="382" x2="353" y2="377" style="stroke:rgb(0,0,0);stroke-width:1;stroke-linecap:round" />
<line x1="429" y1="372" x2="440" y2="372" style="stroke:rgb(0,0,0);stroke-width:1;stroke-linecap:round" />
<line x1="429" y1="367" x2="438" y2="367" style="stroke:rgb(0,0,0);stroke-width:1;stroke-linecap:round" />
<line x1="429" y1="372" x2="429" y2="367" style="stroke:rgb(0,0,0);stroke-width:1;stroke-linecap:round" />
<line x1="427" y1="369" x2="429" y2="369" style="stroke:rgb(0,0,0);stroke-width:1;stroke-linecap:round" />
<line x1="427" y1="362" x2="460" y2="362" style="stroke:rgb(0,0,0);stroke-width:1;stroke-linecap:round" />
<line x1="427" y1="369" x2="427" y2="362" style="stroke:rgb(0,0,0);stroke-width:1;stroke-linecap:round" />
<line x1="425" y1="366" x2="427" y2="366" style="stroke:rgb(0,0,0);stroke-width:1;stroke-linecap:round" />
<line x1="425" y1="357" x2="436" y2="357" style="stroke:rgb(0,0,0);stroke-width:1;stroke-linecap:round" />
<line x1="425" y1="366" x2="425" y2="357" style="stroke:rgb(0,0,0);stroke-width:1;stroke-linecap:round" />
<line x1="423" y1="361" x2="425" y2="361" style="stroke:rgb(0,0,0);stroke-width:1;stroke-linecap:round" />
<line x1="423" y1="352" x2="435" y2="352" style="stroke:rgb(0,0,0);stroke-width:1;stroke-linecap:round" />
<line x1="423" y1="361" x2="423" y2="352" style="stroke:rgb(0,0,0);stroke-width:1;stroke-linecap:round" />
<line x1="344" y1="379" x2="353" y2="379" style="stroke:rgb(0,0,0);stroke-width:1;stroke-linecap:round" />
<line x1="344" y1="357" x2="423" y2="357" style="stroke:rgb(0,0,0);stroke-width:1;stroke-linecap:round" />
<line x1="344" y1="379" x2="344" y2="357" style="stroke:rgb(0,0,0);stroke-width:1;stroke-linecap:round" />
<line x1="334" y1="368" x2="344" y2="368" style="stroke:rgb(0,0,0);stroke-width:1;stroke-linecap:round" />
<line x1="334" y1="347" x2="436" y2="347" style="stroke:rgb(0,0,0);stroke-width:1;stroke-linecap:round" />
<line x1="334" y1="368" x2="334" y2="347" style="stroke:rgb(0,0,0);stroke-width:1;stroke-linecap:round" />
<line x1="416" y1="342" x2="429" y2="342" style="stroke:rgb(0,0,0);stroke-width:1;stroke-linecap:round" />
<line x1="416" y1="337" x2="449" y2="337" style="stroke:rgb(0,0,0);stroke-width:1;stroke-linecap:round" />
<line x1="416" y1="342" x2="416" y2="337" style="stroke:rgb(0,0,0);stroke-width:1;stroke-linecap:round" />
<line x1="329" y1="358" x2="334" y2="358" style="stroke:rgb(0,0,0);stroke-width:1;stroke-linecap:round" />
<line x1="329" y1="340" x2="416" y2="340" style="stroke:rgb(0,0,0);stroke-width:1;stroke-linecap:round" />
<line x1="329" y1="358" x2="329" y2="340" style="stroke:rgb(0,0,0);stroke-width:1;stroke-linecap:round" />
<line x1="407" y1="327" x2="432" y2="327" style="stroke:rgb(0,0,0);stroke-width:1;stroke-linecap:round" />
<line x1="407" y1="322" x2="418" y2="322" style="stroke:rgb(0,0,0);stroke-width:1;stroke-linecap:round" />
<line x1="407" y1="327" x2="407" y2="322" style="stroke:rgb(0,0,0);stroke-width:1;stroke-linecap:round" />
<line x1="406" y1="325" x2="407" y2="325" style="stroke:rgb(0,0,0);stroke-width:1;stroke-linecap:round" />
<line x1="406" y1="317" x2="415" y2="317" style="stroke:rgb(0,0,0);stroke-width:1;stroke-linecap:round" />
<line x1="406" y1="325" x2="406" y2="317" style="stroke:rgb(0,0,0);stroke-width:1;stroke-linecap:round" />
<line x1="405" y1="332" x2="414" y2="332" style="stroke:rgb(0,0,0);stroke-width:1;stroke-linecap:round" />
<line x1="405" y1="321" x2="406" y2="321" style="stroke:rgb(0,0,0);stroke-width:1;stroke-linecap:round" />
<line x1="405" y1="332" x2="405" y2="321" style="stroke:rgb(0,0,0);stroke-width:1;stroke-linecap:round" />
<line x1="296" y1="349" x2="329" y2="349" style="stroke:rgb(0,0,0);stroke-width:1;stroke-linecap:round" />
<line x1="296" y1="327" x2="405" y2="327" style="stroke:rgb(0,0,0);stroke-width:1;stroke-linecap:round" />
<line x1="296" y1="349" x2="296" y2="327" style="stroke:rgb(0,0,0);stroke-width:1;stroke-linecap:round" />
<line x1="274" y1="338" x2="296" y2="338" style="stroke:rgb(0,0,0);stroke-width:1;stroke-linecap:round" />
<line x1="274" y1="312" x2="404" y2="312" style="stroke:rgb(0,0,0);stroke-width:1;stroke-linecap:round" />
<line x1="274" y1="338" x2="274" y2="312" style="stroke:rgb(0,0,0);stroke-width:1;stroke-linecap:round" />
<line x1="254" y1="325" x2="274" y2="325" style="stroke:rgb(0,0,0);stroke-width:1;stroke-linecap:round" />
<line x1="254" y1="307" x2="394" y2="307" style="stroke:rgb(0,0,0);stroke-width:1;stroke-linecap:round" />
<line x1="254" y1="325" x2="254" y2="307" style="stroke:rgb(0,0,0);stroke-width:1;stroke-linecap:round" />
<line x1="386" y1="302" x2="395" y2="302" style="stroke:rgb(0,0,0);stroke-width:1;stroke-linecap:round" />
<line x1="386" y1="298" x2="394" y2="298" style="stroke:rgb(0,0,0);stroke-width:1;stroke-linecap:round" />
<line x1="386" y1="302" x2="386" y2="298" style="stroke:rgb(0,0,0);stroke-width:1;stroke-linecap:round" />
<line x1="248" y1="316" x2="254" y2="316" style="stroke:rgb(0,0,0);stroke-width:1;stroke-linecap:round" />
<line x1="248" y1="300" x2="386" y2="300" style="stroke:rgb(0,0,0);stroke-width:1;stroke-linecap:round" />
<line x1="248" y1="316" x2="248" y2="300" style="stroke:rgb(0,0,0);stroke-width:1;stroke-linecap:round" />
<line x1="229" y1="308" x2="248" y2="308" style="stroke:rgb(0,0,0);stroke-width:1;stroke-linecap:round" />
<line x1="229" y1="293" x2="385" y2="293" style="stroke:rgb(0,0,0);stroke-width:1;stroke-linecap:round" />
<line x1="229" y1="308" x2="229" y2="293" style="stroke:rgb(0,0,0);stroke-width:1;stroke-linecap:round" />
<line x1="227" y1="393" x2="257" y2="393" style="stroke:rgb(0,0,0);stroke-width:1;stroke-linecap:round" />
<line x1="227" y1="300" x2="229" y2="300" style="stroke:rgb(0,0,0);stroke-width:1;stroke-linecap:round" />
<line x1="227" y1="393" x2="227" y2="300" style="stroke:rgb(0,0,0);stroke-width:1;stroke-linecap:round" />
<line x1="344" y1="288" x2="353" y2="288" style="stroke:rgb(0,0,0);stroke-width:1;stroke-linecap:round" />
<line x1="344" y1="283" x2="381" y2="283" style="stroke:rgb(0,0,0);stroke-width:1;stroke-linecap:round" />
<line x1="344" y1="288" x2="344" y2="283" style="stroke:rgb(0,0,0);stroke-width:1;stroke-linecap:round" />
<line x1="341" y1="285" x2="344" y2="285" style="stroke:rgb(0,0,0);stroke-width:1;stroke-linecap:round" />
<line x1="341" y1="278" x2="350" y2="278" style="stroke:rgb(0,0,0);stroke-width:1;stroke-linecap:round" />
<line x1="341" y1="285" x2="341" y2="278" style="stroke:rgb(0,0,0);stroke-width:1;stroke-linecap:round" />
<line x1="239" y1="273" x2="373" y2="273" style="stroke:rgb(0,0,0);stroke-width:1;stroke-linecap:round" />
<line x1="239" y1="268" x2="342" y2="268" style="stroke:rgb(0,0,0);stroke-width:1;stroke-linecap:round" />
<line x1="239" y1="273" x2="239" y2="268" style="stroke:rgb(0,0,0);stroke-width:1;stroke-linecap:round" />
<line x1="232" y1="281" x2="341" y2="281" style="stroke:rgb(0,0,0);stroke-width:1;stroke-linecap:round" />
<line x1="232" y1="270" x2="239" y2="270" style="stroke:rgb(0,0,0);stroke-width:1;stroke-linecap:round" />
<line x1="232" y1="281" x2="232" y2="270" style="stroke:rgb(0,0,0);stroke-width:1;stroke-linecap:round" />
<line x1="214" y1="347" x2="227" y2="347" style="stroke:rgb(0,0,0);stroke-width:1;stroke-linecap:round" />
<line x1="214" y1="276" x2="232" y2="276" style="stroke:rgb(0,0,0);stroke-width:1;stroke-linecap:round" />
<line x1="214" y1="347" x2="214" y2="276" style="stroke:rgb(0,0,0);stroke-width:1;stroke-linecap:round" />
<line x1="330" y1="263" x2="338" y2="263" style="stroke:rgb(0,0,0);stroke-width:1;stroke-linecap:round" />
<line x1="330" y1="258" x2="339" y2="258" style="stroke:rgb(0,0,0);stroke-width:1;stroke-linecap:round" />
<line x1="330" y1="263" x2="330" y2="258" style="stroke:rgb(0,0,0);stroke-width:1;stroke-linecap:round" />
<line x1="328" y1="260" x2="330" y2="260" style="stroke:rgb(0,0,0);stroke-width:1;stroke-linecap:round" />
<line x1="328" y1="253" x2="348" y2="253" style="stroke:rgb(0,0,0);stroke-width:1;stroke-linecap:round" />
<line x1="328" y1="260" x2="328" y2="253" style="stroke:rgb(0,0,0);stroke-width:1;stroke-linecap:round" />
<line x1="329" y1="243" x2="337" y2="243" style="stroke:rgb(0,0,0);stroke-width:1;stroke-linecap:round" />
<line x1="329" y1="238" x2="337" y2="238" style="stroke:rgb(0,0,0);stroke-width:1;stroke-linecap:round" />
<line x1="329" y1="243" x2="329" y2="238" style="stroke:rgb(0,0,0);stroke-width:1;stroke-linecap:round" />
<line x1="329" y1="241" x2="329" y2="241" style="stroke:rgb(0,0,0);stroke-width:1;stroke-linecap:round" />
<line x1="329" y1="233" x2="336" y2="233" style="stroke:rgb(0,0,0);stroke-width:1;stroke-linecap:round" />
<line x1="329" y1="241" x2="329" y2="233" style="stroke:rgb(0,0,0);stroke-width:1;stroke-linecap:round" />
<line x1="328" y1="237" x2="329" y2="237" style="stroke:rgb(0,0,0);stroke-width:1;stroke-linecap:round" />
<line x1="328" y1="228" x2="334" y2="228" style="stroke:rgb(0,0,0);stroke-width:1;stroke-linecap:round" />
<line x1="328" y1="237" x2="328" y2="228" style="stroke:rgb(0,0,0);stroke-width:1;stroke-linecap:round" />
<line x1="324" y1="248" x2="340" y2="248" style="stroke:rgb(0,0,0);stroke-width:1;stroke-linecap:round" />
<line x1="324" y1="232" x2="328" y2="232" style="stroke:rgb(0,0,0);stroke-width:1;stroke-linecap:round" />
<line x1="324" y1="248" x2="324" y2="232" style="stroke:rgb(0,0,0);stroke-width:1;stroke-linecap:round" />
<line x1="250" y1="257" x2="328" y2="257" style="stroke:rgb(0,0,0);stroke-width:1;stroke-linecap:round" />
<line x1="250" y1="240" x2="324" y2="240" style="stroke:rgb(0,0,0);stroke-width:1;stroke-linecap:round" />
<line x1="250" y1="257" x2="250" y2="240" style="stroke:rgb(0,0,0);stroke-width:1;stroke-linecap:round" />
<line x1="334" y1="223" x2="344" y2="223" style="stroke:rgb(0,0,0);stroke-width:1;stroke-linecap:round" />
<line x1="334" y1="218" x2="342" y2="218" style="stroke:rgb(0,0,0);stroke-width:1;stroke-linecap:round" />
<line x1="334" y1="223" x2="334" y2="218" style="stroke:rgb(0,0,0);stroke-width:1;stroke-linecap:round" />
<line x1="342" y1="213" x2="350" y2="213" style="stroke:rgb(0,0,0);stroke-width:1;stroke-linecap:round" />
<line x1="342" y1="208" x2="350" y2="208" style="stroke:rgb(0,0,0);stroke-width:1;stroke-linecap:round" />
<line x1="342" y1="213" x2="342" y2="208" style="stroke:rgb(0,0,0);stroke-width:1;stroke-linecap:round" />
<line x1="343" y1="203" x2="371" y2="203" style="stroke:rgb(0,0,0);stroke-width:1;stroke-linecap:round" />
<line x1="343" y1="198" x2="355" y2="198" style="stroke:rgb(0,0,0);stroke-width:1;stroke-linecap:round" />
<line x1="343" y1="203" x2="343" y2="198" style="stroke:rgb(0,0,0);stroke-width:1;stroke-linecap:round" />
<line x1="342" y1="201" x2="343" y2="201" style="stroke:rgb(0,0,0);stroke-width:1;stroke-linecap:round" />
<line x1="342" y1="193" x2="352" y2="193" style="stroke:rgb(0,0,0);stroke-width:1;stroke-linecap:round" />
<line x1="342" y1="201" x2="342" y2="193" style="stroke:rgb(0,0,0);stroke-width:1;stroke-linecap:round" />
<line x1="341" y1="211" x2="342" y2="211" style="stroke:rgb(0,0,0);stroke-width:1;stroke-linecap:round" />
<line x1="341" y1="197" x2="342" y2="197" style="stroke:rgb(0,0,0);stroke-width:1;stroke-linecap:round" />
<line x1="341" y1="211" x2="341" y2="197" style="stroke:rgb(0,0,0);stroke-width:1;stroke-linecap:round" />
<line x1="340" y1="204" x2="341" y2="204" style="stroke:rgb(0,0,0);stroke-width:1;stroke-linecap:round" />
<line x1="340" y1="189" x2="353" y2="189" style="stroke:rgb(0,0,0);stroke-width:1;stroke-linecap:round" />
<line x1="340" y1="204" x2="340" y2="189" style="stroke:rgb(0,0,0);stroke-width:1;stroke-linecap:round" />
<line x1="236" y1="221" x2="334" y2="221" style="stroke:rgb(0,0,0);stroke-width:1;stroke-linecap:round" />
<line x1="236" y1="196" x2="340" y2="196" style="stroke:rgb(0,0,0);stroke-width:1;stroke-linecap:round" />
<line x1="236" y1="221" x2="236" y2="196" style="stroke:rgb(0,0,0);stroke-width:1;stroke-linecap:round" />
<line x1="231" y1="248" x2="250" y2="248" style="stroke:rgb(0,0,0);stroke-width:1;stroke-linecap:round" />
<line x1="231" y1="208" x2="236" y2="208" style="stroke:rgb(0,0,0);stroke-width:1;stroke-linecap:round" />
<line x1="231" y1="248" x2="231" y2="208" style="stroke:rgb(0,0,0);stroke-width:1;stroke-linecap:round" />
<line x1="207" y1="311" x2="214" y2="311" style="stroke:rgb(0,0,0);stroke-width:1;stroke-linecap:round" />
<line x1="207" y1="228" x2="231" y2="228" style="stroke:rgb(0,0,0);stroke-width:1;stroke-linecap:round" />
<line x1="207" y1="311" x2="207" y2="228" style="stroke:rgb(0,0,0);stroke-width:1;stroke-linecap:round" />
<line x1="323" y1="184" x2="339" y2="184" style="stroke:rgb(0,0,0);stroke-width:1;stroke-linecap:round" />
<line x1="323" y1="179" x2="347" y2="179" style="stroke:rgb(0,0,0);stroke-width:1;stroke-linecap:round" />
<line x1="323" y1="184" x2="323" y2="179" style="stroke:rgb(0,0,0);stroke-width:1;stroke-linecap:round" />
<line x1="203" y1="270" x2="207" y2="270" style="stroke:rgb(0,0,0);stroke-width:1;stroke-linecap:round" />
<line x1="203" y1="181" x2="323" y2="181" style="stroke:rgb(0,0,0);stroke-width:1;stroke-linecap:round" />
<line x1="203" y1="270" x2="203" y2="181" style="stroke:rgb(0,0,0);stroke-width:1;stroke-linecap:round" />
<line x1="197" y1="405" x2="203" y2="405" style="stroke:rgb(0,0,0);stroke-width:1;stroke-linecap:round" />
<line x1="197" y1="225" x2="203" y2="225" style="stroke:rgb(0,0,0);stroke-width:1;stroke-linecap:round" />
<line x1="197" y1="405" x2="197" y2="225" style="stroke:rgb(0,0,0);stroke-width:1;stroke-linecap:round" />
<line x1="193" y1="444" x2="211" y2="444" style="stroke:rgb(0,0,0);stroke-width:1;stroke-linecap:round" />
<line x1="193" y1="315" x2="197" y2="315" style="stroke:rgb(0,0,0);stroke-width:1;stroke-linecap:round" />
<line x1="193" y1="444" x2="193" y2="315" style="stroke:rgb(0,0,0);stroke-width:1;stroke-linecap:round" />
<line x1="187" y1="379" x2="193" y2="379" style="stroke:rgb(0,0,0);stroke-width:1;stroke-linecap:round" />
<line x1="187" y1="174" x2="421" y2="174" style="stroke:rgb(0,0,0);stroke-width:1;stroke-linecap:round" />
<line x1="187" y1="379" x2="187" y2="174" style="stroke:rgb(0,0,0);stroke-width:1;stroke-linecap:round" />
<line x1="184" y1="461" x2="343" y2="461" style="stroke:rgb(0,0,0);stroke-width:1;stroke-linecap:round" />
<line x1="184" y1="277" x2="187" y2="277" style="stroke:rgb(0,0,0);stroke-width:1;stroke-linecap:round" />
<line x1="184" y1="461" x2="184" y2="277" style="stroke:rgb(0,0,0);stroke-width:1;stroke-linecap:round" />
<line x1="367" y1="169" x2="384" y2="169" style="stroke:rgb(0,0,0);stroke-width:1;stroke-linecap:round" />
<line x1="367" y1="164" x2="391" y2="164" style="stroke:rgb(0,0,0);stroke-width:1;stroke-linecap:round" />
<line x1="367" y1="169" x2="367" y2="164" style="stroke:rgb(0,0,0);stroke-width:1;stroke-linecap:round" />
<line x1="215" y1="166" x2="367" y2="166" style="stroke:rgb(0,0,0);stroke-width:1;stroke-linecap:round" />
<line x1="215" y1="159" x2="384" y2="159" style="stroke:rgb(0,0,0);stroke-width:1;stroke-linecap:round" />
<line x1="215" y1="166" x2="215" y2="159" style="stroke:rgb(0,0,0);stroke-width:1;stroke-linecap:round" />
<line x1="196" y1="163" x2="215" y2="163" style="stroke:rgb(0,0,0);stroke-width:1;stroke-linecap:round" />
<line x1="196" y1="154" x2="359" y2="154" style="stroke:rgb(0,0,0);stroke-width:1;stroke-linecap:round" />
<line x1="196" y1="163" x2="196" y2="154" style="stroke:rgb(0,0,0);stroke-width:1;stroke-linecap:round" />
<line x1="390" y1="144" x2="400" y2="144" style="stroke:rgb(0,0,0);stroke-width:1;stroke-linecap:round" />
<line x1="390" y1="139" x2="401" y2="139" style="stroke:rgb(0,0,0);stroke-width:1;stroke-linecap:round" />
<line x1="390" y1="144" x2="390" y2="139" style="stroke:rgb(0,0,0);stroke-width:1;stroke-linecap:round" />
<line x1="382" y1="149" x2="399" y2="149" style="stroke:rgb(0,0,0);stroke-width:1;stroke-linecap:round" />
<line x1="382" y1="141" x2="390" y2="141" style="stroke:rgb(0,0,0);stroke-width:1;stroke-linecap:round" />
<line x1="382" y1="149" x2="382" y2="141" style="stroke:rgb(0,0,0);stroke-width:1;stroke-linecap:round" />
<line x1="185" y1="158" x2="196" y2="158" style="stroke:rgb(0,0,0);stroke-width:1;stroke-linecap:round" />
<line x1="185" y1="145" x2="382" y2="145" style="stroke:rgb(0,0,0);stroke-width:1;stroke-linecap:round" />
<line x1="185" y1="158" x2="185" y2="145" style="stroke:rgb(0,0,0);stroke-width:1;stroke-linecap:round" />
<line x1="176" y1="369" x2="184" y2="369" style="stroke:rgb(0,0,0);stroke-width:1;stroke-linecap:round" />
<line x1="176" y1="152" x2="185" y2="152" style="stroke:rgb(0,0,0);stroke-width:1;stroke-linecap:round" />
<line x1="176" y1="369" x2="176" y2="152" style="stroke:rgb(0,0,0);stroke-width:1;stroke-linecap:round" />
<line x1="311" y1="129" x2="320" y2="129" style="stroke:rgb(0,0,0);stroke-width:1;stroke-linecap:round" />
<line x1="311" y1="124" x2="325" y2="124" style="stroke:rgb(0,0,0);stroke-width:1;stroke-linecap:round" />
<line x1="311" y1="129" x2="311" y2="124" style="stroke:rgb(0,0,0);stroke-width:1;stroke-linecap:round" />
<line x1="255" y1="134" x2="313" y2="134" style="stroke:rgb(0,0,0);stroke-width:1;stroke-linecap:round" />
<line x1="255" y1="127" x2="311" y2="127" style="stroke:rgb(0,0,0);stroke-width:1;stroke-linecap:round" />
<line x1="255" y1="134" x2="255" y2="127" style="stroke:rgb(0,0,0);stroke-width:1;stroke-linecap:round" />
<line x1="312" y1="119" x2="320" y2="119" style="stroke:rgb(0,0,0);stroke-width:1;stroke-linecap:round" />
<line x1="312" y1="114" x2="320" y2="114" style="stroke:rgb(0,0,0);stroke-width:1;stroke-linecap:round" />
<line x1="312" y1="119" x2="312" y2="114" style="stroke:rgb(0,0,0);stroke-width:1;stroke-linecap:round" />
<line x1="311" y1="117" x2="312" y2="117" style="stroke:rgb(0,0,0);stroke-width:1;stroke-linecap:round" />
<line x1="311" y1="109" x2="316" y2="109" style="stroke:rgb(0,0,0);stroke-width:1;stroke-linecap:round" />
<line x1="311" y1="117" x2="311" y2="109" style="stroke:rgb(0,0,0);stroke-width:1;stroke-linecap:round" />
<line x1="232" y1="130" x2="255" y2="130" style="stroke:rgb(0,0,0);stroke-width:1;stroke-linecap:round" />
<line x1="232" y1="113" x2="311" y2="113" style="stroke:rgb(0,0,0);stroke-width:1;stroke-linecap:round" />
<line x1="232" y1="130" x2="232" y2="113" style="stroke:rgb(0,0,0);stroke-width:1;stroke-linecap:round" />
<line x1="190" y1="122" x2="232" y2="122" style="stroke:rgb(0,0,0);stroke-width:1;stroke-linecap:round" />
<line x1="190" y1="104" x2="332" y2="104" style="stroke:rgb(0,0,0);stroke-width:1;stroke-linecap:round" />
<line x1="190" y1="122" x2="190" y2="104" style="stroke:rgb(0,0,0);stroke-width:1;stroke-linecap:round" />
<line x1="346" y1="99" x2="360" y2="99" style="stroke:rgb(0,0,0);stroke-width:1;stroke-linecap:round" />
<line x1="346" y1="94" x2="366" y2="94" style="stroke:rgb(0,0,0);stroke-width:1;stroke-linecap:round" />
<line x1="346" y1="99" x2="346" y2="94" style="stroke:rgb(0,0,0);stroke-width:1;stroke-linecap:round" />
<line x1="176" y1="113" x2="190" y2="113" style="stroke:rgb(0,0,0);stroke-width:1;stroke-linecap:round" />
<line x1="176" y1="97" x2="346" y2="97" style="stroke:rgb(0,0,0);stroke-width:1;stroke-linecap:round" />
<line x1="176" y1="113" x2="176" y2="97" style="stroke:rgb(0,0,0);stroke-width:1;stroke-linecap:round" />
<line x1="169" y1="260" x2="176" y2="260" style="stroke:rgb(0,0,0);stroke-width:1;stroke-linecap:round" />
<line x1="169" y1="105" x2="176" y2="105" style="stroke:rgb(0,0,0);stroke-width:1;stroke-linecap:round" />
<line x1="169" y1="260" x2="169" y2="105" style="stroke:rgb(0,0,0);stroke-width:1;stroke-linecap:round" />
<line x1="147" y1="183" x2="169" y2="183" style="stroke:rgb(0,0,0);stroke-width:1;stroke-linecap:round" />
<line x1="147" y1="89" x2="346" y2="89" style="stroke:rgb(0,0,0);stroke-width:1;stroke-linecap:round" />
<line x1="147" y1="183" x2="147" y2="89" style="stroke:rgb(0,0,0);stroke-width:1;stroke-linecap:round" />
<line x1="146" y1="84" x2="387" y2="84" style="stroke:rgb(0,0,0);stroke-width:1;stroke-linecap:round" />
<line x1="146" y1="80" x2="348" y2="80" style="stroke:rgb(0,0,0);stroke-width:1;stroke-linecap:round" />
<line x1="146" y1="84" x2="146" y2="80" style="stroke:rgb(0,0,0);stroke-width:1;stroke-linecap:round" />
<line x1="123" y1="136" x2="147" y2="136" style="stroke:rgb(0,0,0);stroke-width:1;stroke-linecap:round" />
<line x1="123" y1="82" x2="146" y2="82" style="stroke:rgb(0,0,0);stroke-width:1;stroke-linecap:round" />
<line x1="123" y1="136" x2="123" y2="82" style="stroke:rgb(0,0,0);stroke-width:1;stroke-linecap:round" />
<line x1="92" y1="109" x2="123" y2="109" style="stroke:rgb(0,0,0);stroke-width:1;stroke-linecap:round" />
<line x1="92" y1="75" x2="361" y2="75" style="stroke:rgb(0,0,0);stroke-width:1;stroke-linecap:round" />
<line x1="92" y1="109" x2="92" y2="75" style="stroke:rgb(0,0,0);stroke-width:1;stroke-linecap:round" />
<line x1="42" y1="92" x2="92" y2="92" style="stroke:rgb(0,0,0);stroke-width:1;stroke-linecap:round" />
<line x1="42" y1="70" x2="420" y2="70" style="stroke:rgb(0,0,0);stroke-width:1;stroke-linecap:round" />
<line x1="42" y1="92" x2="42" y2="70" style="stroke:rgb(0,0,0);stroke-width:1;stroke-linecap:round" />
<line x1="302" y1="65" x2="385" y2="65" style="stroke:rgb(0,0,0);stroke-width:1;stroke-linecap:round" />
<line x1="302" y1="60" x2="385" y2="60" style="stroke:rgb(0,0,0);stroke-width:1;stroke-linecap:round" />
<line x1="302" y1="65" x2="302" y2="60" style="stroke:rgb(0,0,0);stroke-width:1;stroke-linecap:round" />
<line x1="294" y1="62" x2="302" y2="62" style="stroke:rgb(0,0,0);stroke-width:1;stroke-linecap:round" />
<line x1="294" y1="55" x2="393" y2="55" style="stroke:rgb(0,0,0);stroke-width:1;stroke-linecap:round" />
<line x1="294" y1="62" x2="294" y2="55" style="stroke:rgb(0,0,0);stroke-width:1;stroke-linecap:round" />
<line x1="34" y1="81" x2="42" y2="81" style="stroke:rgb(0,0,0);stroke-width:1;stroke-linecap:round" />
<line x1="34" y1="58" x2="294" y2="58" style="stroke:rgb(0,0,0);stroke-width:1;stroke-linecap:round" />
<line x1="34" y1="81" x2="34" y2="58" style="stroke:rgb(0,0,0);stroke-width:1;stroke-linecap:round" />
<line x1="353" y1="35" x2="366" y2="35" style="stroke:rgb(0,0,0);stroke-width:1;stroke-linecap:round" />
<line x1="353" y1="30" x2="384" y2="30" style="stroke:rgb(0,0,0);stroke-width:1;stroke-linecap:round" />
<line x1="353" y1="35" x2="353" y2="30" style="stroke:rgb(0,0,0);stroke-width:1;stroke-linecap:round" />
<line x1="350" y1="40" x2="371" y2="40" style="stroke:rgb(0,0,0);stroke-width:1;stroke-linecap:round" />
<line x1="350" y1="32" x2="353" y2="32" style="stroke:rgb(0,0,0);stroke-width:1;stroke-linecap:round" />
<line x1="350" y1="40" x2="350" y2="32" style="stroke:rgb(0,0,0);stroke-width:1;stroke-linecap:round" />
<line x1="287" y1="45" x2="369" y2="45" style="stroke:rgb(0,0,0);stroke-width:1;stroke-linecap:round" />
<line x1="287" y1="36" x2="350" y2="36" style="stroke:rgb(0,0,0);stroke-width:1;stroke-linecap:round" />
<line x1="287" y1="45" x2="287" y2="36" style="stroke:rgb(0,0,0);stroke-width:1;stroke-linecap:round" />
<line x1="275" y1="50" x2="370" y2="50" style="stroke:rgb(0,0,0);stroke-width:1;stroke-linecap:round" />
<line x1="275" y1="41" x2="287" y2="41" style="stroke:rgb(0,0,0);stroke-width:1;stroke-linecap:round" />
<line x1="275" y1="50" x2="275" y2="41" style="stroke:rgb(0,0,0);stroke-width:1;stroke-linecap:round" />
<line x1="12" y1="70" x2="34" y2="70" style="stroke:rgb(0,0,0);stroke-width:1;stroke-linecap:round" />
<line x1="12" y1="45" x2="275" y2="45" style="stroke:rgb(0,0,0);stroke-width:1;stroke-linecap:round" />
<line x1="12" y1="70" x2="12" y2="45" style="stroke:rgb(0,0,0);stroke-width:1;stroke-linecap:round" />
<text x="5" y="17" font-family="serif" font-size="12" fill="rgb(0,0,0)" textLength="158.00">BioNJ 41612944 sites J-C</text>
<line x1="413" y1="13" x2="490" y2="13" style="stroke:rgb(0,0,0);stroke-width:1;stroke-linecap:round" />
<line x1="413" y1="17" x2="413" y2="9" style="stroke:rgb(0,0,0);stroke-width:1;stroke-linecap:round" />
<line x1="490" y1="17" x2="490" y2="9" style="stroke:rgb(0,0,0);stroke-width:1;stroke-linecap:round" />
<text x="434" y="11" font-family="serif" font-size="12" fill="rgb(0,0,0)" textLength="36.00">0.001</text>
</svg>
