<?xml version="1.0" encoding="utf-8" standalone="no"?>
<!DOCTYPE svg PUBLIC "-//W3C//DTD SVG 1.1//EN" 
"http://www.w3.org/Graphics/SVG/1.1/DTD/svg11.dtd">
<svg width="1841px" height="996px" viewBox="0 0 1841 996"
xmlns="http://www.w3.org/2000/svg" version="1.1">
<rect x="0" y="0" width="1841" height="996" fill="none" stroke="rgb(192,192,192)" stroke-width="1"/>
<line x1="314" y1="711" x2="496" y2="669" style="stroke:rgb(0,0,0);stroke-width:2;stroke-linecap:butt" />
<g transform="translate(496,672) rotate(-12)"><text x="0" y="0" font-family="serif" font-size="12" fill="rgb(0,0,0)" textLength="34.00"> Rasp</text>
</g>
<line x1="314" y1="711" x2="456" y2="686" style="stroke:rgb(0,0,0);stroke-width:2;stroke-linecap:butt" />
<g transform="translate(456,689) rotate(-9)"><text x="0" y="0" font-family="serif" font-size="12" fill="rgb(0,0,0)" textLength="52.00"> 1.03.18</text>
</g>
<line x1="304" y1="713" x2="314" y2="711" style="stroke:rgb(0,0,0);stroke-width:2;stroke-linecap:butt" />
<line x1="460" y1="704" x2="511" y2="698" style="stroke:rgb(0,0,0);stroke-width:2;stroke-linecap:butt" />
<g transform="translate(511,701) rotate(-7)"><text x="0" y="0" font-family="serif" font-size="12" fill="rgb(0,0,0)" textLength="28.00"> 300</text>
</g>
<line x1="460" y1="704" x2="473" y2="703" style="stroke:rgb(0,0,0);stroke-width:2;stroke-linecap:butt" />
<g transform="translate(473,706) rotate(-3)"><text x="0" y="0" font-family="serif" font-size="12" fill="rgb(0,0,0)" textLength="52.00"> 1.04.15</text>
</g>
<line x1="455" y1="705" x2="460" y2="704" style="stroke:rgb(0,0,0);stroke-width:2;stroke-linecap:butt" />
<line x1="455" y1="705" x2="467" y2="705" style="stroke:rgb(0,0,0);stroke-width:2;stroke-linecap:butt" />
<g transform="translate(467,708) rotate(-358)"><text x="0" y="0" font-family="serif" font-size="12" fill="rgb(0,0,0)" textLength="52.00"> 1.01.15</text>
</g>
<line x1="304" y1="713" x2="455" y2="705" style="stroke:rgb(0,0,0);stroke-width:2;stroke-linecap:butt" />
<line x1="279" y1="716" x2="304" y2="713" style="stroke:rgb(0,0,0);stroke-width:2;stroke-linecap:butt" />
<line x1="555" y1="801" x2="602" y2="797" style="stroke:rgb(0,0,0);stroke-width:2;stroke-linecap:butt" />
<g transform="translate(602,800) rotate(-5)"><text x="0" y="0" font-family="serif" font-size="12" fill="rgb(0,0,0)" textLength="48.00"> Peachy</text>
</g>
<line x1="559" y1="801" x2="575" y2="801" style="stroke:rgb(0,0,0);stroke-width:2;stroke-linecap:butt" />
<g transform="translate(575,804) rotate(-359)"><text x="0" y="0" font-family="serif" font-size="12" fill="rgb(0,0,0)" textLength="52.00"> 1.04.25</text>
</g>
<line x1="559" y1="801" x2="571" y2="802" style="stroke:rgb(0,0,0);stroke-width:2;stroke-linecap:butt" />
<g transform="translate(571,805) rotate(-354)"><text x="0" y="0" font-family="serif" font-size="12" fill="rgb(0,0,0)" textLength="52.00"> 1.04.21</text>
</g>
<line x1="555" y1="801" x2="559" y2="801" style="stroke:rgb(0,0,0);stroke-width:2;stroke-linecap:butt" />
<line x1="552" y1="801" x2="555" y2="801" style="stroke:rgb(0,0,0);stroke-width:2;stroke-linecap:butt" />
<line x1="552" y1="801" x2="568" y2="804" style="stroke:rgb(0,0,0);stroke-width:2;stroke-linecap:butt" />
<g transform="translate(568,807) rotate(-348)"><text x="0" y="0" font-family="serif" font-size="12" fill="rgb(0,0,0)" textLength="52.00"> 1.02.16</text>
</g>
<line x1="550" y1="801" x2="552" y2="801" style="stroke:rgb(0,0,0);stroke-width:2;stroke-linecap:butt" />
<line x1="550" y1="801" x2="565" y2="805" style="stroke:rgb(0,0,0);stroke-width:2;stroke-linecap:butt" />
<g transform="translate(564,808) rotate(-343)"><text x="0" y="0" font-family="serif" font-size="12" fill="rgb(0,0,0)" textLength="52.00"> 1.04.20</text>
</g>
<line x1="440" y1="790" x2="550" y2="801" style="stroke:rgb(0,0,0);stroke-width:2;stroke-linecap:butt" />
<line x1="452" y1="795" x2="562" y2="833" style="stroke:rgb(0,0,0);stroke-width:2;stroke-linecap:butt" />
<g transform="translate(561,836) rotate(-340)"><text x="0" y="0" font-family="serif" font-size="12" fill="rgb(0,0,0)" textLength="52.00"> 1.05.04</text>
</g>
<line x1="452" y1="795" x2="580" y2="853" style="stroke:rgb(0,0,0);stroke-width:2;stroke-linecap:butt" />
<g transform="translate(579,856) rotate(-335)"><text x="0" y="0" font-family="serif" font-size="12" fill="rgb(0,0,0)" textLength="40.00"> GLO1</text>
</g>
<line x1="440" y1="790" x2="452" y2="795" style="stroke:rgb(0,0,0);stroke-width:2;stroke-linecap:butt" />
<line x1="427" y1="788" x2="440" y2="790" style="stroke:rgb(0,0,0);stroke-width:2;stroke-linecap:butt" />
<line x1="427" y1="788" x2="551" y2="856" style="stroke:rgb(0,0,0);stroke-width:2;stroke-linecap:butt" />
<g transform="translate(550,859) rotate(-331)"><text x="0" y="0" font-family="serif" font-size="12" fill="rgb(0,0,0)" textLength="52.00"> 1.03.20</text>
</g>
<line x1="420" y1="786" x2="427" y2="788" style="stroke:rgb(0,0,0);stroke-width:2;stroke-linecap:butt" />
<line x1="519" y1="859" x2="557" y2="883" style="stroke:rgb(0,0,0);stroke-width:2;stroke-linecap:butt" />
<g transform="translate(555,886) rotate(-327)"><text x="0" y="0" font-family="serif" font-size="12" fill="rgb(0,0,0)" textLength="52.00"> 1.04.02</text>
</g>
<line x1="519" y1="859" x2="532" y2="870" style="stroke:rgb(0,0,0);stroke-width:2;stroke-linecap:butt" />
<g transform="translate(530,873) rotate(-320)"><text x="0" y="0" font-family="serif" font-size="12" fill="rgb(0,0,0)" textLength="52.00"> 1.05.14</text>
</g>
<line x1="420" y1="786" x2="519" y2="859" style="stroke:rgb(0,0,0);stroke-width:2;stroke-linecap:butt" />
<line x1="376" y1="773" x2="420" y2="786" style="stroke:rgb(0,0,0);stroke-width:2;stroke-linecap:butt" />
<line x1="477" y1="891" x2="505" y2="913" style="stroke:rgb(0,0,0);stroke-width:2;stroke-linecap:butt" />
<g transform="translate(503,916) rotate(-321)"><text x="0" y="0" font-family="serif" font-size="12" fill="rgb(0,0,0)" textLength="52.00"> 1.04.03</text>
</g>
<line x1="477" y1="891" x2="487" y2="902" style="stroke:rgb(0,0,0);stroke-width:2;stroke-linecap:butt" />
<g transform="translate(485,904) rotate(-314)"><text x="0" y="0" font-family="serif" font-size="12" fill="rgb(0,0,0)" textLength="52.00"> 1.02.15</text>
</g>
<line x1="475" y1="890" x2="477" y2="891" style="stroke:rgb(0,0,0);stroke-width:2;stroke-linecap:butt" />
<line x1="475" y1="890" x2="484" y2="901" style="stroke:rgb(0,0,0);stroke-width:2;stroke-linecap:butt" />
<g transform="translate(481,903) rotate(-306)"><text x="0" y="0" font-family="serif" font-size="12" fill="rgb(0,0,0)" textLength="52.00"> 1.04.04</text>
</g>
<line x1="474" y1="889" x2="475" y2="890" style="stroke:rgb(0,0,0);stroke-width:2;stroke-linecap:butt" />
<line x1="474" y1="889" x2="481" y2="900" style="stroke:rgb(0,0,0);stroke-width:2;stroke-linecap:butt" />
<g transform="translate(478,901) rotate(-298)"><text x="0" y="0" font-family="serif" font-size="12" fill="rgb(0,0,0)" textLength="52.00"> 1.04.05</text>
</g>
<line x1="376" y1="773" x2="474" y2="889" style="stroke:rgb(0,0,0);stroke-width:2;stroke-linecap:butt" />
<line x1="348" y1="760" x2="376" y2="773" style="stroke:rgb(0,0,0);stroke-width:2;stroke-linecap:butt" />
<line x1="348" y1="760" x2="436" y2="919" style="stroke:rgb(0,0,0);stroke-width:2;stroke-linecap:butt" />
<g transform="translate(433,920) rotate(-298)"><text x="0" y="0" font-family="serif" font-size="12" fill="rgb(0,0,0)" textLength="52.00"> 1.05.17</text>
</g>
<line x1="324" y1="748" x2="348" y2="760" style="stroke:rgb(0,0,0);stroke-width:2;stroke-linecap:butt" />
<line x1="324" y1="748" x2="409" y2="924" style="stroke:rgb(0,0,0);stroke-width:2;stroke-linecap:butt" />
<g transform="translate(406,925) rotate(-295)"><text x="0" y="0" font-family="serif" font-size="12" fill="rgb(0,0,0)" textLength="52.00"> 1.03.19</text>
</g>
<line x1="316" y1="743" x2="324" y2="748" style="stroke:rgb(0,0,0);stroke-width:2;stroke-linecap:butt" />
<line x1="377" y1="927" x2="382" y2="937" style="stroke:rgb(0,0,0);stroke-width:2;stroke-linecap:butt" />
<g transform="translate(379,938) rotate(-292)"><text x="0" y="0" font-family="serif" font-size="12" fill="rgb(0,0,0)" textLength="52.00"> 1.02.18</text>
</g>
<line x1="377" y1="927" x2="379" y2="936" style="stroke:rgb(0,0,0);stroke-width:2;stroke-linecap:butt" />
<g transform="translate(376,936) rotate(-283)"><text x="0" y="0" font-family="serif" font-size="12" fill="rgb(0,0,0)" textLength="52.00"> 1.02.17</text>
</g>
<line x1="316" y1="743" x2="377" y2="927" style="stroke:rgb(0,0,0);stroke-width:2;stroke-linecap:butt" />
<line x1="294" y1="729" x2="316" y2="743" style="stroke:rgb(0,0,0);stroke-width:2;stroke-linecap:butt" />
<line x1="294" y1="729" x2="341" y2="941" style="stroke:rgb(0,0,0);stroke-width:2;stroke-linecap:butt" />
<g transform="translate(338,941) rotate(-282)"><text x="0" y="0" font-family="serif" font-size="12" fill="rgb(0,0,0)" textLength="52.00"> 1.04.12</text>
</g>
<line x1="292" y1="727" x2="294" y2="729" style="stroke:rgb(0,0,0);stroke-width:2;stroke-linecap:butt" />
<line x1="293" y1="769" x2="317" y2="938" style="stroke:rgb(0,0,0);stroke-width:2;stroke-linecap:butt" />
<g transform="translate(314,938) rotate(-277)"><text x="0" y="0" font-family="serif" font-size="12" fill="rgb(0,0,0)" textLength="51.00"> KernB2</text>
</g>
<line x1="290" y1="933" x2="291" y2="945" style="stroke:rgb(0,0,0);stroke-width:2;stroke-linecap:butt" />
<g transform="translate(288,945) rotate(-273)"><text x="0" y="0" font-family="serif" font-size="12" fill="rgb(0,0,0)" textLength="52.00"> 1.05.22</text>
</g>
<line x1="290" y1="933" x2="289" y2="944" style="stroke:rgb(0,0,0);stroke-width:2;stroke-linecap:butt" />
<g transform="translate(287,995) rotate(-83)"><text x="0" y="0" font-family="serif" font-size="12" fill="rgb(0,0,0)" textLength="52.00">1.05.16 </text>
</g>
<line x1="293" y1="769" x2="290" y2="933" style="stroke:rgb(0,0,0);stroke-width:2;stroke-linecap:butt" />
<line x1="292" y1="727" x2="293" y2="769" style="stroke:rgb(0,0,0);stroke-width:2;stroke-linecap:butt" />
<line x1="279" y1="716" x2="292" y2="727" style="stroke:rgb(0,0,0);stroke-width:2;stroke-linecap:butt" />
<line x1="267" y1="708" x2="279" y2="716" style="stroke:rgb(0,0,0);stroke-width:2;stroke-linecap:butt" />
<line x1="191" y1="882" x2="192" y2="896" style="stroke:rgb(0,0,0);stroke-width:2;stroke-linecap:butt" />
<g transform="translate(189,896) rotate(-275)"><text x="0" y="0" font-family="serif" font-size="12" fill="rgb(0,0,0)" textLength="52.00"> 1.02.19</text>
</g>
<line x1="191" y1="883" x2="189" y2="923" style="stroke:rgb(0,0,0);stroke-width:2;stroke-linecap:butt" />
<g transform="translate(190,974) rotate(-86)"><text x="0" y="0" font-family="serif" font-size="12" fill="rgb(0,0,0)" textLength="52.00">1.03.22 </text>
</g>
<line x1="191" y1="883" x2="187" y2="900" style="stroke:rgb(0,0,0);stroke-width:2;stroke-linecap:butt" />
<g transform="translate(179,950) rotate(-77)"><text x="0" y="0" font-family="serif" font-size="12" fill="rgb(0,0,0)" textLength="52.00">1.03.02 </text>
</g>
<line x1="191" y1="882" x2="191" y2="883" style="stroke:rgb(0,0,0);stroke-width:2;stroke-linecap:butt" />
<line x1="191" y1="881" x2="191" y2="882" style="stroke:rgb(0,0,0);stroke-width:2;stroke-linecap:butt" />
<line x1="191" y1="881" x2="186" y2="892" style="stroke:rgb(0,0,0);stroke-width:2;stroke-linecap:butt" />
<g transform="translate(169,940) rotate(-67)"><text x="0" y="0" font-family="serif" font-size="12" fill="rgb(0,0,0)" textLength="52.00">1.03.23 </text>
</g>
<line x1="191" y1="881" x2="185" y2="891" style="stroke:rgb(0,0,0);stroke-width:2;stroke-linecap:butt" />
<g transform="translate(160,936) rotate(-56)"><text x="0" y="0" font-family="serif" font-size="12" fill="rgb(0,0,0)" textLength="52.00">1.03.16 </text>
</g>
<line x1="191" y1="881" x2="191" y2="881" style="stroke:rgb(0,0,0);stroke-width:2;stroke-linecap:butt" />
<line x1="191" y1="879" x2="191" y2="881" style="stroke:rgb(0,0,0);stroke-width:2;stroke-linecap:butt" />
<line x1="191" y1="879" x2="178" y2="893" style="stroke:rgb(0,0,0);stroke-width:2;stroke-linecap:butt" />
<g transform="translate(145,932) rotate(-46)"><text x="0" y="0" font-family="serif" font-size="12" fill="rgb(0,0,0)" textLength="52.00">1.03.12 </text>
</g>
<line x1="235" y1="742" x2="191" y2="879" style="stroke:rgb(0,0,0);stroke-width:2;stroke-linecap:butt" />
<line x1="140" y1="841" x2="131" y2="851" style="stroke:rgb(0,0,0);stroke-width:2;stroke-linecap:butt" />
<g transform="translate(102,893) rotate(-51)"><text x="0" y="0" font-family="serif" font-size="12" fill="rgb(0,0,0)" textLength="52.00">1.04.19 </text>
</g>
<line x1="140" y1="841" x2="132" y2="847" style="stroke:rgb(0,0,0);stroke-width:2;stroke-linecap:butt" />
<g transform="translate(95,883) rotate(-40)"><text x="0" y="0" font-family="serif" font-size="12" fill="rgb(0,0,0)" textLength="52.00">1.04.17 </text>
</g>
<line x1="235" y1="742" x2="140" y2="841" style="stroke:rgb(0,0,0);stroke-width:2;stroke-linecap:butt" />
<line x1="238" y1="734" x2="235" y2="742" style="stroke:rgb(0,0,0);stroke-width:2;stroke-linecap:butt" />
<line x1="113" y1="789" x2="105" y2="796" style="stroke:rgb(0,0,0);stroke-width:2;stroke-linecap:butt" />
<g transform="translate(70,833) rotate(-43)"><text x="0" y="0" font-family="serif" font-size="12" fill="rgb(0,0,0)" textLength="52.00">1.01.04 </text>
</g>
<line x1="113" y1="789" x2="104" y2="795" style="stroke:rgb(0,0,0);stroke-width:2;stroke-linecap:butt" />
<g transform="translate(63,826) rotate(-33)"><text x="0" y="0" font-family="serif" font-size="12" fill="rgb(0,0,0)" textLength="52.00">1.01.03 </text>
</g>
<line x1="114" y1="788" x2="113" y2="789" style="stroke:rgb(0,0,0);stroke-width:2;stroke-linecap:butt" />
<line x1="114" y1="788" x2="105" y2="792" style="stroke:rgb(0,0,0);stroke-width:2;stroke-linecap:butt" />
<g transform="translate(59,816) rotate(-24)"><text x="0" y="0" font-family="serif" font-size="12" fill="rgb(0,0,0)" textLength="52.00">1.01.02 </text>
</g>
<line x1="114" y1="787" x2="114" y2="788" style="stroke:rgb(0,0,0);stroke-width:2;stroke-linecap:butt" />
<line x1="114" y1="787" x2="106" y2="790" style="stroke:rgb(0,0,0);stroke-width:2;stroke-linecap:butt" />
<g transform="translate(57,806) rotate(-15)"><text x="0" y="0" font-family="serif" font-size="12" fill="rgb(0,0,0)" textLength="52.00">1.01.01 </text>
</g>
<line x1="119" y1="785" x2="114" y2="787" style="stroke:rgb(0,0,0);stroke-width:2;stroke-linecap:butt" />
<line x1="119" y1="785" x2="97" y2="788" style="stroke:rgb(0,0,0);stroke-width:2;stroke-linecap:butt" />
<g transform="translate(46,797) rotate(-6)"><text x="0" y="0" font-family="serif" font-size="12" fill="rgb(0,0,0)" textLength="52.00">1.01.06 </text>
</g>
<line x1="213" y1="743" x2="119" y2="785" style="stroke:rgb(0,0,0);stroke-width:2;stroke-linecap:butt" />
<line x1="101" y1="747" x2="90" y2="748" style="stroke:rgb(0,0,0);stroke-width:2;stroke-linecap:butt" />
<g transform="translate(39,756) rotate(-6)"><text x="0" y="0" font-family="serif" font-size="12" fill="rgb(0,0,0)" textLength="52.00">1.05.24 </text>
</g>
<line x1="101" y1="747" x2="89" y2="747" style="stroke:rgb(0,0,0);stroke-width:2;stroke-linecap:butt" />
<g transform="translate(38,749) rotate(1)"><text x="0" y="0" font-family="serif" font-size="12" fill="rgb(0,0,0)" textLength="52.00">1.05.11 </text>
</g>
<line x1="213" y1="743" x2="101" y2="747" style="stroke:rgb(0,0,0);stroke-width:2;stroke-linecap:butt" />
<line x1="238" y1="734" x2="213" y2="743" style="stroke:rgb(0,0,0);stroke-width:2;stroke-linecap:butt" />
<line x1="262" y1="712" x2="238" y2="734" style="stroke:rgb(0,0,0);stroke-width:2;stroke-linecap:butt" />
<line x1="262" y1="712" x2="76" y2="706" style="stroke:rgb(0,0,0);stroke-width:2;stroke-linecap:butt" />
<g transform="translate(27,708) rotate(2)"><text x="0" y="0" font-family="serif" font-size="12" fill="rgb(0,0,0)" textLength="50.00">NobleR </text>
</g>
<line x1="267" y1="708" x2="262" y2="712" style="stroke:rgb(0,0,0);stroke-width:2;stroke-linecap:butt" />
<line x1="264" y1="702" x2="267" y2="708" style="stroke:rgb(0,0,0);stroke-width:2;stroke-linecap:butt" />
<line x1="260" y1="702" x2="49" y2="680" style="stroke:rgb(0,0,0);stroke-width:2;stroke-linecap:butt" />
<g transform="translate(4,679) rotate(5)"><text x="0" y="0" font-family="serif" font-size="12" fill="rgb(0,0,0)" textLength="46.00">Mex03 </text>
</g>
<line x1="260" y1="702" x2="63" y2="664" style="stroke:rgb(0,0,0);stroke-width:2;stroke-linecap:butt" />
<g transform="translate(28,661) rotate(10)"><text x="0" y="0" font-family="serif" font-size="12" fill="rgb(0,0,0)" textLength="36.00">2004 </text>
</g>
<line x1="264" y1="702" x2="260" y2="702" style="stroke:rgb(0,0,0);stroke-width:2;stroke-linecap:butt" />
<line x1="261" y1="693" x2="264" y2="702" style="stroke:rgb(0,0,0);stroke-width:2;stroke-linecap:butt" />
<line x1="67" y1="598" x2="67" y2="598" style="stroke:rgb(0,0,0);stroke-width:2;stroke-linecap:butt" />
<g transform="translate(16,595) rotate(6)"><text x="0" y="0" font-family="serif" font-size="12" fill="rgb(0,0,0)" textLength="52.00">1.02.06 </text>
</g>
<line x1="67" y1="598" x2="67" y2="598" style="stroke:rgb(0,0,0);stroke-width:2;stroke-linecap:butt" />
<g transform="translate(16,588) rotate(14)"><text x="0" y="0" font-family="serif" font-size="12" fill="rgb(0,0,0)" textLength="52.00">1.02.03 </text>
</g>
<line x1="81" y1="601" x2="67" y2="598" style="stroke:rgb(0,0,0);stroke-width:2;stroke-linecap:butt" />
<line x1="81" y1="601" x2="70" y2="596" style="stroke:rgb(0,0,0);stroke-width:2;stroke-linecap:butt" />
<g transform="translate(21,580) rotate(21)"><text x="0" y="0" font-family="serif" font-size="12" fill="rgb(0,0,0)" textLength="52.00">1.02.20 </text>
</g>
<line x1="83" y1="601" x2="81" y2="601" style="stroke:rgb(0,0,0);stroke-width:2;stroke-linecap:butt" />
<line x1="83" y1="601" x2="75" y2="597" style="stroke:rgb(0,0,0);stroke-width:2;stroke-linecap:butt" />
<g transform="translate(29,575) rotate(28)"><text x="0" y="0" font-family="serif" font-size="12" fill="rgb(0,0,0)" textLength="52.00">1.02.04 </text>
</g>
<line x1="86" y1="602" x2="83" y2="601" style="stroke:rgb(0,0,0);stroke-width:2;stroke-linecap:butt" />
<line x1="86" y1="602" x2="78" y2="597" style="stroke:rgb(0,0,0);stroke-width:2;stroke-linecap:butt" />
<g transform="translate(34,571) rotate(35)"><text x="0" y="0" font-family="serif" font-size="12" fill="rgb(0,0,0)" textLength="52.00">1.02.02 </text>
</g>
<line x1="87" y1="603" x2="86" y2="602" style="stroke:rgb(0,0,0);stroke-width:2;stroke-linecap:butt" />
<line x1="87" y1="603" x2="77" y2="594" style="stroke:rgb(0,0,0);stroke-width:2;stroke-linecap:butt" />
<g transform="translate(36,563) rotate(41)"><text x="0" y="0" font-family="serif" font-size="12" fill="rgb(0,0,0)" textLength="52.00">1.02.01 </text>
</g>
<line x1="161" y1="638" x2="87" y2="603" style="stroke:rgb(0,0,0);stroke-width:2;stroke-linecap:butt" />
<line x1="161" y1="638" x2="96" y2="576" style="stroke:rgb(0,0,0);stroke-width:2;stroke-linecap:butt" />
<g transform="translate(57,543) rotate(43)"><text x="0" y="0" font-family="serif" font-size="12" fill="rgb(0,0,0)" textLength="52.00">1.04.01 </text>
</g>
<line x1="240" y1="680" x2="161" y2="638" style="stroke:rgb(0,0,0);stroke-width:2;stroke-linecap:butt" />
<line x1="130" y1="560" x2="107" y2="538" style="stroke:rgb(0,0,0);stroke-width:2;stroke-linecap:butt" />
<g transform="translate(77,512) rotate(44)"><text x="0" y="0" font-family="serif" font-size="12" fill="rgb(0,0,0)" textLength="40.00">Navel </text>
</g>
<line x1="130" y1="560" x2="121" y2="549" style="stroke:rgb(0,0,0);stroke-width:2;stroke-linecap:butt" />
<g transform="translate(87,514) rotate(50)"><text x="0" y="0" font-family="serif" font-size="12" fill="rgb(0,0,0)" textLength="49.00">DavisN </text>
</g>
<line x1="240" y1="680" x2="130" y2="560" style="stroke:rgb(0,0,0);stroke-width:2;stroke-linecap:butt" />
<line x1="261" y1="693" x2="240" y2="680" style="stroke:rgb(0,0,0);stroke-width:2;stroke-linecap:butt" />
<line x1="261" y1="684" x2="261" y2="693" style="stroke:rgb(0,0,0);stroke-width:2;stroke-linecap:butt" />
<line x1="261" y1="684" x2="59" y2="426" style="stroke:rgb(0,0,0);stroke-width:2;stroke-linecap:butt" />
<g transform="translate(33,399) rotate(51)"><text x="0" y="0" font-family="serif" font-size="12" fill="rgb(0,0,0)" textLength="38.00">Molly </text>
</g>
<line x1="262" y1="681" x2="261" y2="684" style="stroke:rgb(0,0,0);stroke-width:2;stroke-linecap:butt" />
<line x1="262" y1="681" x2="136" y2="498" style="stroke:rgb(0,0,0);stroke-width:2;stroke-linecap:butt" />
<g transform="translate(115,473) rotate(55)"><text x="0" y="0" font-family="serif" font-size="12" fill="rgb(0,0,0)" textLength="33.00">Rose </text>
</g>
<line x1="263" y1="671" x2="262" y2="681" style="stroke:rgb(0,0,0);stroke-width:2;stroke-linecap:butt" />
<line x1="134" y1="439" x2="116" y2="410" style="stroke:rgb(0,0,0);stroke-width:2;stroke-linecap:butt" />
<g transform="translate(86,370) rotate(57)"><text x="0" y="0" font-family="serif" font-size="12" fill="rgb(0,0,0)" textLength="51.00">KernB1 </text>
</g>
<line x1="134" y1="439" x2="124" y2="418" style="stroke:rgb(0,0,0);stroke-width:2;stroke-linecap:butt" />
<g transform="translate(92,361) rotate(63)"><text x="0" y="0" font-family="serif" font-size="12" fill="rgb(0,0,0)" textLength="65.00">Geranium </text>
</g>
<line x1="240" y1="623" x2="134" y2="439" style="stroke:rgb(0,0,0);stroke-width:2;stroke-linecap:butt" />
<line x1="240" y1="623" x2="145" y2="408" style="stroke:rgb(0,0,0);stroke-width:2;stroke-linecap:butt" />
<g transform="translate(122,362) rotate(66)"><text x="0" y="0" font-family="serif" font-size="12" fill="rgb(0,0,0)" textLength="52.00">1.01.12 </text>
</g>
<line x1="252" y1="646" x2="240" y2="623" style="stroke:rgb(0,0,0);stroke-width:2;stroke-linecap:butt" />
<line x1="252" y1="646" x2="173" y2="432" style="stroke:rgb(0,0,0);stroke-width:2;stroke-linecap:butt" />
<g transform="translate(149,375) rotate(69)"><text x="0" y="0" font-family="serif" font-size="12" fill="rgb(0,0,0)" textLength="62.00">Fresa525 </text>
</g>
<line x1="258" y1="660" x2="252" y2="646" style="stroke:rgb(0,0,0);stroke-width:2;stroke-linecap:butt" />
<line x1="258" y1="660" x2="172" y2="374" style="stroke:rgb(0,0,0);stroke-width:2;stroke-linecap:butt" />
<g transform="translate(159,340) rotate(73)"><text x="0" y="0" font-family="serif" font-size="12" fill="rgb(0,0,0)" textLength="37.00">BMM </text>
</g>
<line x1="263" y1="671" x2="258" y2="660" style="stroke:rgb(0,0,0);stroke-width:2;stroke-linecap:butt" />
<line x1="267" y1="660" x2="263" y2="671" style="stroke:rgb(0,0,0);stroke-width:2;stroke-linecap:butt" />
<line x1="236" y1="462" x2="233" y2="451" style="stroke:rgb(0,0,0);stroke-width:2;stroke-linecap:butt" />
<g transform="translate(225,433) rotate(74)"><text x="0" y="0" font-family="serif" font-size="12" fill="rgb(0,0,0)" textLength="20.00">T7 </text>
</g>
<line x1="236" y1="462" x2="234" y2="451" style="stroke:rgb(0,0,0);stroke-width:2;stroke-linecap:butt" />
<g transform="translate(228,432) rotate(78)"><text x="0" y="0" font-family="serif" font-size="12" fill="rgb(0,0,0)" textLength="20.00">T3 </text>
</g>
<line x1="236" y1="465" x2="236" y2="462" style="stroke:rgb(0,0,0);stroke-width:2;stroke-linecap:butt" />
<line x1="236" y1="465" x2="235" y2="456" style="stroke:rgb(0,0,0);stroke-width:2;stroke-linecap:butt" />
<g transform="translate(226,395) rotate(83)"><text x="0" y="0" font-family="serif" font-size="12" fill="rgb(0,0,0)" textLength="62.00">PhiloMen </text>
</g>
<line x1="257" y1="571" x2="236" y2="465" style="stroke:rgb(0,0,0);stroke-width:2;stroke-linecap:butt" />
<line x1="256" y1="540" x2="251" y2="450" style="stroke:rgb(0,0,0);stroke-width:2;stroke-linecap:butt" />
<g transform="translate(246,411) rotate(86)"><text x="0" y="0" font-family="serif" font-size="12" fill="rgb(0,0,0)" textLength="40.00">KGB1 </text>
</g>
<line x1="256" y1="540" x2="257" y2="459" style="stroke:rgb(0,0,0);stroke-width:2;stroke-linecap:butt" />
<g transform="translate(260,459) rotate(-89)"><text x="0" y="0" font-family="serif" font-size="12" fill="rgb(0,0,0)" textLength="44.00"> KatieT</text>
</g>
<line x1="257" y1="571" x2="256" y2="540" style="stroke:rgb(0,0,0);stroke-width:2;stroke-linecap:butt" />
<line x1="265" y1="631" x2="257" y2="571" style="stroke:rgb(0,0,0);stroke-width:2;stroke-linecap:butt" />
<line x1="265" y1="631" x2="276" y2="432" style="stroke:rgb(0,0,0);stroke-width:2;stroke-linecap:butt" />
<g transform="translate(279,432) rotate(-86)"><text x="0" y="0" font-family="serif" font-size="12" fill="rgb(0,0,0)" textLength="20.00"> T4</text>
</g>
<line x1="266" y1="650" x2="265" y2="631" style="stroke:rgb(0,0,0);stroke-width:2;stroke-linecap:butt" />
<line x1="299" y1="417" x2="301" y2="396" style="stroke:rgb(0,0,0);stroke-width:2;stroke-linecap:butt" />
<g transform="translate(304,396) rotate(-84)"><text x="0" y="0" font-family="serif" font-size="12" fill="rgb(0,0,0)" textLength="28.00"> Fd1</text>
</g>
<line x1="299" y1="417" x2="305" y2="388" style="stroke:rgb(0,0,0);stroke-width:2;stroke-linecap:butt" />
<g transform="translate(308,388) rotate(-79)"><text x="0" y="0" font-family="serif" font-size="12" fill="rgb(0,0,0)" textLength="51.00"> BO5.10</text>
</g>
<line x1="266" y1="650" x2="299" y2="417" style="stroke:rgb(0,0,0);stroke-width:2;stroke-linecap:butt" />
<line x1="267" y1="660" x2="266" y2="650" style="stroke:rgb(0,0,0);stroke-width:2;stroke-linecap:butt" />
<line x1="287" y1="638" x2="267" y2="660" style="stroke:rgb(0,0,0);stroke-width:2;stroke-linecap:butt" />
<line x1="287" y1="638" x2="343" y2="366" style="stroke:rgb(0,0,0);stroke-width:2;stroke-linecap:butt" />
<g transform="translate(346,366) rotate(-78)"><text x="0" y="0" font-family="serif" font-size="12" fill="rgb(0,0,0)" textLength="28.00"> Fd2</text>
</g>
<line x1="310" y1="615" x2="287" y2="638" style="stroke:rgb(0,0,0);stroke-width:2;stroke-linecap:butt" />
<line x1="319" y1="584" x2="398" y2="257" style="stroke:rgb(0,0,0);stroke-width:2;stroke-linecap:butt" />
<g transform="translate(401,257) rotate(-76)"><text x="0" y="0" font-family="serif" font-size="12" fill="rgb(0,0,0)" textLength="32.00"> UKR</text>
</g>
<line x1="319" y1="584" x2="402" y2="316" style="stroke:rgb(0,0,0);stroke-width:2;stroke-linecap:butt" />
<g transform="translate(405,317) rotate(-72)"><text x="0" y="0" font-family="serif" font-size="12" fill="rgb(0,0,0)" textLength="45.00"> Acacia</text>
</g>
<line x1="310" y1="615" x2="319" y2="584" style="stroke:rgb(0,0,0);stroke-width:2;stroke-linecap:butt" />
<line x1="344" y1="587" x2="310" y2="615" style="stroke:rgb(0,0,0);stroke-width:2;stroke-linecap:butt" />
<line x1="344" y1="587" x2="465" y2="232" style="stroke:rgb(0,0,0);stroke-width:2;stroke-linecap:butt" />
<g transform="translate(468,233) rotate(-71)"><text x="0" y="0" font-family="serif" font-size="12" fill="rgb(0,0,0)" textLength="52.00"> 1.03.04</text>
</g>
<line x1="399" y1="545" x2="344" y2="587" style="stroke:rgb(0,0,0);stroke-width:2;stroke-linecap:butt" />
<line x1="399" y1="545" x2="573" y2="48" style="stroke:rgb(0,0,0);stroke-width:2;stroke-linecap:butt" />
<g transform="translate(576,49) rotate(-70)"><text x="0" y="0" font-family="serif" font-size="12" fill="rgb(0,0,0)" textLength="38.00"> BPA1</text>
</g>
<line x1="408" y1="539" x2="399" y2="545" style="stroke:rgb(0,0,0);stroke-width:2;stroke-linecap:butt" />
<line x1="668" y1="276" x2="665" y2="159" style="stroke:rgb(0,0,0);stroke-width:2;stroke-linecap:butt" />
<g transform="translate(661,96) rotate(88)"><text x="0" y="0" font-family="serif" font-size="12" fill="rgb(0,0,0)" textLength="64.00">Apple404 </text>
</g>
<line x1="668" y1="276" x2="680" y2="160" style="stroke:rgb(0,0,0);stroke-width:2;stroke-linecap:butt" />
<g transform="translate(683,160) rotate(-84)"><text x="0" y="0" font-family="serif" font-size="12" fill="rgb(0,0,0)" textLength="37.00"> A517</text>
</g>
<line x1="668" y1="292" x2="668" y2="276" style="stroke:rgb(0,0,0);stroke-width:2;stroke-linecap:butt" />
<line x1="766" y1="212" x2="763" y2="189" style="stroke:rgb(0,0,0);stroke-width:2;stroke-linecap:butt" />
<g transform="translate(755,138) rotate(83)"><text x="0" y="0" font-family="serif" font-size="12" fill="rgb(0,0,0)" textLength="52.00">2.04.21 </text>
</g>
<line x1="766" y1="212" x2="767" y2="193" style="stroke:rgb(0,0,0);stroke-width:2;stroke-linecap:butt" />
<g transform="translate(770,193) rotate(-86)"><text x="0" y="0" font-family="serif" font-size="12" fill="rgb(0,0,0)" textLength="52.00"> 2.04.04</text>
</g>
<line x1="766" y1="215" x2="766" y2="212" style="stroke:rgb(0,0,0);stroke-width:2;stroke-linecap:butt" />
<line x1="766" y1="214" x2="772" y2="193" style="stroke:rgb(0,0,0);stroke-width:2;stroke-linecap:butt" />
<g transform="translate(775,193) rotate(-75)"><text x="0" y="0" font-family="serif" font-size="12" fill="rgb(0,0,0)" textLength="52.00"> 2.04.18</text>
</g>
<line x1="766" y1="214" x2="777" y2="193" style="stroke:rgb(0,0,0);stroke-width:2;stroke-linecap:butt" />
<g transform="translate(780,194) rotate(-62)"><text x="0" y="0" font-family="serif" font-size="12" fill="rgb(0,0,0)" textLength="52.00"> 2.04.14</text>
</g>
<line x1="766" y1="215" x2="766" y2="214" style="stroke:rgb(0,0,0);stroke-width:2;stroke-linecap:butt" />
<line x1="766" y1="218" x2="766" y2="215" style="stroke:rgb(0,0,0);stroke-width:2;stroke-linecap:butt" />
<line x1="766" y1="218" x2="779" y2="203" style="stroke:rgb(0,0,0);stroke-width:2;stroke-linecap:butt" />
<g transform="translate(781,205) rotate(-48)"><text x="0" y="0" font-family="serif" font-size="12" fill="rgb(0,0,0)" textLength="52.00"> 2.04.20</text>
</g>
<line x1="765" y1="219" x2="766" y2="218" style="stroke:rgb(0,0,0);stroke-width:2;stroke-linecap:butt" />
<line x1="765" y1="219" x2="782" y2="208" style="stroke:rgb(0,0,0);stroke-width:2;stroke-linecap:butt" />
<g transform="translate(784,211) rotate(-33)"><text x="0" y="0" font-family="serif" font-size="12" fill="rgb(0,0,0)" textLength="52.00"> 2.04.17</text>
</g>
<line x1="765" y1="220" x2="765" y2="219" style="stroke:rgb(0,0,0);stroke-width:2;stroke-linecap:butt" />
<line x1="765" y1="220" x2="781" y2="214" style="stroke:rgb(0,0,0);stroke-width:2;stroke-linecap:butt" />
<g transform="translate(782,217) rotate(-19)"><text x="0" y="0" font-family="serif" font-size="12" fill="rgb(0,0,0)" textLength="52.00"> 2.04.03</text>
</g>
<line x1="764" y1="222" x2="765" y2="220" style="stroke:rgb(0,0,0);stroke-width:2;stroke-linecap:butt" />
<line x1="764" y1="222" x2="789" y2="219" style="stroke:rgb(0,0,0);stroke-width:2;stroke-linecap:butt" />
<g transform="translate(789,222) rotate(-7)"><text x="0" y="0" font-family="serif" font-size="12" fill="rgb(0,0,0)" textLength="52.00"> 2.04.09</text>
</g>
<line x1="762" y1="225" x2="764" y2="222" style="stroke:rgb(0,0,0);stroke-width:2;stroke-linecap:butt" />
<line x1="762" y1="225" x2="780" y2="226" style="stroke:rgb(0,0,0);stroke-width:2;stroke-linecap:butt" />
<g transform="translate(780,229) rotate(-357)"><text x="0" y="0" font-family="serif" font-size="12" fill="rgb(0,0,0)" textLength="52.00"> 2.04.11</text>
</g>
<line x1="759" y1="228" x2="762" y2="225" style="stroke:rgb(0,0,0);stroke-width:2;stroke-linecap:butt" />
<line x1="759" y1="228" x2="775" y2="232" style="stroke:rgb(0,0,0);stroke-width:2;stroke-linecap:butt" />
<g transform="translate(775,235) rotate(-348)"><text x="0" y="0" font-family="serif" font-size="12" fill="rgb(0,0,0)" textLength="52.00"> 2.04.08</text>
</g>
<line x1="757" y1="230" x2="759" y2="228" style="stroke:rgb(0,0,0);stroke-width:2;stroke-linecap:butt" />
<line x1="757" y1="230" x2="780" y2="237" style="stroke:rgb(0,0,0);stroke-width:2;stroke-linecap:butt" />
<g transform="translate(779,240) rotate(-341)"><text x="0" y="0" font-family="serif" font-size="12" fill="rgb(0,0,0)" textLength="52.00"> 2.04.12</text>
</g>
<line x1="668" y1="292" x2="757" y2="230" style="stroke:rgb(0,0,0);stroke-width:2;stroke-linecap:butt" />
<line x1="408" y1="539" x2="668" y2="292" style="stroke:rgb(0,0,0);stroke-width:2;stroke-linecap:butt" />
<line x1="800" y1="470" x2="919" y2="415" style="stroke:rgb(0,0,0);stroke-width:2;stroke-linecap:butt" />
<g transform="translate(920,418) rotate(-24)"><text x="0" y="0" font-family="serif" font-size="12" fill="rgb(0,0,0)" textLength="61.00"> EspFresa</text>
</g>
<line x1="817" y1="469" x2="925" y2="438" style="stroke:rgb(0,0,0);stroke-width:2;stroke-linecap:butt" />
<g transform="translate(926,441) rotate(-15)"><text x="0" y="0" font-family="serif" font-size="12" fill="rgb(0,0,0)" textLength="54.00"> Ausubel</text>
</g>
<line x1="907" y1="470" x2="925" y2="467" style="stroke:rgb(0,0,0);stroke-width:2;stroke-linecap:butt" />
<g transform="translate(925,470) rotate(-8)"><text x="0" y="0" font-family="serif" font-size="12" fill="rgb(0,0,0)" textLength="62.00"> MEAPGG</text>
</g>
<line x1="907" y1="470" x2="951" y2="477" style="stroke:rgb(0,0,0);stroke-width:2;stroke-linecap:butt" />
<g transform="translate(951,480) rotate(-350)"><text x="0" y="0" font-family="serif" font-size="12" fill="rgb(0,0,0)" textLength="42.00"> Grape</text>
</g>
<line x1="817" y1="469" x2="907" y2="470" style="stroke:rgb(0,0,0);stroke-width:2;stroke-linecap:butt" />
<line x1="800" y1="470" x2="817" y2="469" style="stroke:rgb(0,0,0);stroke-width:2;stroke-linecap:butt" />
<line x1="408" y1="539" x2="800" y2="470" style="stroke:rgb(0,0,0);stroke-width:2;stroke-linecap:butt" />
<line x1="1569" y1="22" x2="1785" y2="22" style="stroke:rgb(0,0,0);stroke-width:1;stroke-linecap:butt" />
<text x="1659" y="17" font-family="serif" font-size="12" fill="rgb(0,0,0)" textLength="36.00">0.002</text>
<line x1="1569" y1="17" x2="1569" y2="27" style="stroke:rgb(0,0,0);stroke-width:1;stroke-linecap:butt" />
<line x1="1785" y1="17" x2="1785" y2="27" style="stroke:rgb(0,0,0);stroke-width:1;stroke-linecap:butt" />
</svg>
